<?xml version="1.0" standalone="no"?>
<!DOCTYPE svg PUBLIC "-//W3C//DTD SVG 20010904//EN"
 "http://www.w3.org/TR/2001/REC-SVG-20010904/DTD/svg10.dtd">
<svg version="1.0" xmlns="http://www.w3.org/2000/svg"
 width="420.000000pt" height="420.000000pt" viewBox="0 0 420.000000 420.000000"
 preserveAspectRatio="xMidYMid meet">
<metadata>
Created by potrace 1.14, written by Peter Selinger 2001-2017
</metadata>
<g transform="translate(0.000000,420.000000) scale(0.100000,-0.100000)"
fill="#000000" stroke="none">
<path d="M1239 3490 c0 -30 0 -164 0 -298 1 -186 -2 -242 -12 -241 -6 1 -139
1 -294 0 l-283 -1 0 -285 0 -285 23 0 c12 0 275 0 585 0 l562 0 0 -422 c0
-233 0 -494 0 -580 l0 -158 285 0 285 0 0 580 0 580 585 -3 585 -2 0 55 c1 61
1 397 0 473 l0 47 -295 0 -295 0 0 295 0 295 -865 2 -865 3 -1 -55z"/>
<path d="M2990 1505 l0 -285 285 0 c157 0 285 3 285 8 1 10 1 491 0 530 l0 32
-285 0 -285 0 0 -285z"/>
<path d="M2442 1200 l-44 -5 1 -235 c0 -129 0 -256 1 -282 l0 -48 285 0 285 0
0 285 0 285 -42 1 c-314 3 -450 3 -486 -1z"/>
</g>
</svg>
